<?xml version="1.0" standalone="no"?>
<!DOCTYPE svg PUBLIC "-//W3C//DTD SVG 20010904//EN"
 "http://www.w3.org/TR/2001/REC-SVG-20010904/DTD/svg10.dtd">
<svg version="1.0" xmlns="http://www.w3.org/2000/svg"
 width="2000.000000pt" height="2000.000000pt" viewBox="0 0 2000.000000 2000.000000"
 preserveAspectRatio="xMidYMid meet">
<metadata>
Created by potrace 1.14, written by Peter Selinger 2001-2017
</metadata>
<g transform="translate(0.000000,2000.000000) scale(0.100000,-0.100000)"
fill="#000000" stroke="none">
<path d="M14740 19751 c0 -5 4 -11 9 -13 10 -4 140 -119 260 -233 136 -128
415 -410 551 -556 221 -238 259 -281 414 -469 44 -52 83 -96 88 -98 4 -2 8
-10 8 -17 0 -7 4 -15 8 -17 5 -1 26 -25 46 -53 21 -27 50 -64 65 -80 14 -17
39 -48 56 -70 16 -22 35 -47 42 -55 7 -8 57 -76 113 -150 55 -74 104 -140 108
-145 5 -6 17 -24 28 -40 10 -17 21 -32 24 -35 4 -3 31 -41 60 -85 30 -44 57
-82 60 -85 12 -10 130 -193 130 -201 0 -4 3 -9 8 -11 4 -1 27 -34 52 -73 25
-38 48 -71 52 -73 5 -2 8 -7 8 -11 0 -5 46 -84 102 -177 207 -344 435 -775
581 -1099 27 -60 56 -126 65 -145 9 -19 16 -37 17 -40 0 -3 11 -27 24 -55 12
-27 43 -102 68 -165 25 -63 54 -137 65 -165 11 -27 21 -54 23 -60 1 -5 6 -21
12 -35 6 -14 41 -117 78 -230 38 -113 70 -212 73 -220 6 -18 4 -10 30 -100 12
-41 26 -88 32 -105 47 -150 182 -754 204 -915 3 -25 8 -55 10 -67 3 -11 7 -43
11 -70 4 -26 9 -59 11 -73 2 -14 6 -54 10 -90 3 -36 7 -76 10 -90 2 -14 6 -60
10 -102 3 -43 7 -88 9 -100 27 -139 33 -820 9 -1098 -4 -47 -8 -98 -9 -115 -1
-16 -5 -61 -9 -99 -4 -37 -9 -91 -11 -120 -3 -28 -7 -60 -9 -72 -2 -12 -7 -45
-11 -75 -3 -30 -8 -61 -10 -69 -2 -8 -7 -35 -10 -60 -3 -25 -8 -52 -10 -60 -2
-8 -7 -35 -10 -60 -4 -25 -13 -76 -22 -115 -8 -38 -17 -81 -19 -95 -3 -14 -10
-45 -15 -70 -6 -25 -13 -56 -15 -70 -9 -46 -93 -365 -108 -407 -8 -24 -13 -43
-10 -43 2 0 0 -8 -5 -18 -6 -11 -12 -30 -15 -43 -7 -29 -35 -117 -47 -144 -4
-11 -17 -48 -28 -82 -12 -33 -25 -72 -30 -85 -5 -12 -39 -97 -75 -188 -36 -91
-77 -194 -91 -230 -36 -87 -247 -518 -295 -600 -20 -36 -49 -85 -62 -110 -27
-46 -63 -108 -111 -189 -15 -25 -30 -54 -33 -63 -4 -10 -10 -18 -15 -18 -5 0
-9 -5 -9 -11 0 -6 -11 -25 -25 -43 -14 -18 -25 -38 -25 -44 0 -6 -3 -12 -7
-14 -5 -1 -48 -64 -97 -138 -49 -74 -109 -161 -132 -193 -24 -31 -44 -61 -44
-66 0 -5 -3 -11 -8 -13 -4 -1 -25 -28 -47 -58 -22 -30 -42 -57 -45 -60 -3 -3
-30 -36 -59 -75 -162 -209 -455 -506 -721 -729 -147 -123 -468 -356 -491 -356
-5 0 -9 -4 -9 -9 0 -5 -12 -16 -27 -24 -16 -7 -82 -47 -148 -87 -66 -40 -145
-87 -175 -104 -30 -16 -73 -40 -95 -52 -93 -51 -336 -170 -464 -225 -159 -70
-432 -175 -501 -194 -8 -3 -73 -23 -145 -45 -209 -65 -410 -115 -580 -145 -44
-8 -91 -17 -105 -19 -47 -9 -155 -25 -205 -31 -27 -3 -61 -8 -75 -10 -176 -27
-637 -25 -815 5 -33 5 -78 12 -100 16 -75 11 -255 62 -321 91 -22 9 -43 16
-49 14 -7 -2 -7 1 0 6 8 8 159 49 208 57 7 1 37 10 67 19 30 9 123 37 205 61
83 25 197 61 255 81 58 20 112 38 120 40 39 10 222 80 390 148 311 126 596
264 818 396 29 17 55 31 57 31 5 0 181 109 255 158 325 216 608 478 951 882
208 245 434 561 614 860 47 78 85 143 85 146 0 2 11 23 26 45 32 52 151 285
210 414 72 155 81 176 110 245 14 36 31 76 37 90 5 14 11 30 13 35 2 6 27 78
57 160 65 178 119 344 154 475 48 181 102 416 118 510 3 19 10 58 15 85 14 75
18 100 35 225 9 63 17 129 20 145 2 17 7 64 10 105 4 41 8 86 11 100 16 105
23 649 10 870 -11 185 -23 323 -31 365 -2 11 -6 43 -9 70 -7 65 -16 134 -22
165 -14 73 -25 140 -30 180 -3 25 -9 61 -14 80 -5 19 -18 82 -30 140 -38 190
-145 581 -190 695 -4 11 -20 58 -35 105 -29 89 -87 242 -111 297 -8 17 -14 34
-14 37 0 12 -126 289 -204 451 -70 143 -210 403 -282 522 -10 17 -39 64 -63
105 -86 143 -240 362 -421 598 -48 62 -152 185 -220 260 -47 52 -115 133 -124
148 -4 8 -16 22 -25 31 -9 9 -47 53 -86 97 -97 109 -472 485 -575 575 -47 41
-87 76 -90 79 -12 12 -239 198 -280 230 -25 19 -46 38 -48 42 -2 4 -7 8 -12 8
-5 0 -46 28 -92 63 -100 75 -333 237 -342 237 -4 0 -16 8 -27 18 -10 11 -31
25 -46 33 -15 8 -84 48 -153 90 -186 113 -493 274 -701 368 -41 18 -96 44
-124 56 -114 52 -626 247 -680 259 -27 6 -105 29 -145 43 -53 17 -214 62 -250
69 -14 3 -45 11 -70 18 -25 8 -56 17 -70 19 -14 3 -75 17 -137 31 -61 14 -123
27 -137 30 -15 3 -34 7 -44 10 -21 6 -50 12 -169 31 -51 9 -98 17 -105 20 -7
2 -31 7 -53 9 -22 3 -92 14 -155 25 -123 22 -164 28 -220 35 -19 2 -71 9 -115
15 -44 6 -105 13 -135 16 -30 3 -71 7 -90 10 -172 22 -523 39 -820 39 -187 0
-527 -11 -591 -19 -15 -2 -78 -6 -140 -10 -62 -3 -116 -8 -119 -9 -3 -2 -36
-7 -75 -10 -38 -4 -86 -9 -105 -11 -19 -3 -55 -7 -80 -10 -25 -3 -56 -7 -70
-10 -14 -2 -45 -7 -70 -10 -166 -22 -722 -128 -780 -149 -8 -3 -26 -7 -40 -10
-31 -5 -200 -50 -294 -77 -38 -12 -76 -22 -85 -24 -29 -7 -285 -85 -346 -107
-306 -106 -593 -219 -790 -310 -71 -33 -139 -62 -150 -65 -11 -3 -27 -11 -35
-18 -8 -6 -44 -24 -80 -40 -297 -129 -892 -485 -1255 -752 -55 -40 -111 -81
-124 -90 -40 -29 -254 -196 -281 -219 -14 -12 -47 -41 -75 -64 -310 -261 -750
-690 -975 -950 -12 -14 -40 -47 -63 -73 -23 -27 -53 -61 -67 -77 -14 -15 -38
-45 -55 -66 -28 -36 -84 -103 -95 -114 -3 -3 -21 -25 -40 -50 -19 -25 -38 -49
-42 -55 -5 -5 -27 -35 -51 -65 -23 -30 -45 -56 -49 -58 -5 -2 -8 -9 -8 -16 0
-6 -8 -19 -17 -28 -20 -19 -25 -25 -73 -93 -19 -28 -38 -51 -42 -53 -4 -2 -8
-8 -8 -13 0 -6 -5 -15 -10 -22 -32 -37 -93 -125 -101 -144 -5 -13 -13 -23 -19
-23 -5 0 -10 -4 -10 -9 0 -8 -118 -192 -140 -218 -5 -7 -10 -14 -10 -17 0 -3
-20 -36 -44 -73 -24 -37 -53 -84 -63 -103 -11 -19 -50 -86 -87 -149 -36 -62
-66 -115 -66 -116 0 -2 -16 -32 -36 -67 -20 -34 -79 -148 -131 -253 -52 -104
-101 -201 -108 -215 -7 -14 -45 -99 -85 -190 -39 -91 -75 -174 -80 -185 -20
-45 -72 -171 -74 -180 -3 -12 -15 -42 -26 -70 -47 -113 -237 -697 -255 -785
-2 -8 -14 -58 -29 -110 -14 -52 -27 -106 -30 -120 -3 -14 -7 -34 -10 -45 -13
-52 -88 -404 -92 -430 -2 -16 -10 -64 -18 -105 -9 -41 -18 -95 -21 -120 -3
-25 -8 -52 -10 -60 -2 -8 -7 -40 -10 -70 -3 -30 -8 -62 -10 -70 -2 -8 -7 -42
-10 -75 -4 -33 -8 -73 -10 -90 -2 -16 -7 -59 -10 -95 -4 -36 -8 -76 -10 -89
-3 -13 -7 -61 -10 -105 -4 -45 -8 -103 -10 -131 -24 -317 -24 -1012 0 -1223 2
-20 7 -75 10 -122 4 -47 8 -96 10 -110 2 -14 4 -38 5 -55 2 -29 16 19 35 120
5 23 43 193 70 305 2 8 20 76 39 150 20 74 39 144 41 155 6 25 108 377 136
465 11 36 26 85 34 110 15 52 72 213 110 315 14 39 28 77 30 85 2 8 4 16 5 18
2 1 3 5 4 10 1 8 102 265 116 297 5 11 41 99 80 195 75 183 82 198 125 295 65
142 112 240 192 400 48 94 93 184 101 200 32 64 246 452 271 490 36 57 49 77
60 100 6 11 26 45 45 75 20 30 43 68 52 84 72 129 469 705 551 801 5 6 29 37
55 70 25 33 54 70 64 81 11 12 31 37 46 55 14 19 36 45 48 59 12 14 36 42 53
64 18 21 37 43 42 50 6 6 25 29 44 51 215 253 573 615 831 840 80 69 280 234
340 280 36 28 67 52 70 55 15 15 302 225 315 231 6 2 57 35 115 73 120 80 289
186 295 186 2 0 38 20 78 45 41 25 79 45 85 45 6 0 12 3 14 8 4 9 28 22 233
126 142 72 221 110 388 185 98 44 378 151 537 204 151 51 488 151 542 161 13
2 95 20 183 39 180 40 388 79 494 92 23 3 55 7 70 9 33 6 89 13 166 22 33 3
68 8 78 10 9 1 63 6 120 10 56 3 113 8 127 10 52 6 401 18 545 18 147 -1 490
-12 570 -19 22 -2 69 -7 105 -10 36 -2 88 -7 115 -10 28 -2 79 -7 115 -10 36
-2 74 -7 85 -9 18 -3 96 -15 150 -21 11 -2 61 -11 110 -20 50 -10 101 -19 115
-22 278 -50 783 -219 1105 -368 164 -76 251 -119 278 -138 15 -10 27 -15 27
-11 0 3 6 2 13 -4 10 -8 97 -59 262 -152 157 -88 589 -391 714 -500 9 -8 39
-33 66 -55 28 -22 64 -52 80 -68 17 -15 58 -51 93 -80 59 -49 392 -383 457
-457 140 -162 354 -446 440 -586 127 -207 225 -404 271 -544 8 -25 19 -54 23
-65 36 -88 87 -335 69 -335 -4 0 -8 4 -8 9 0 9 -130 179 -184 240 -138 156
-374 387 -506 496 -25 20 -55 46 -68 56 -56 48 -318 242 -339 252 -13 5 -23
14 -23 19 0 4 -4 8 -9 8 -5 0 -42 22 -83 48 -438 288 -990 533 -1553 687 -129
36 -398 99 -465 109 -19 3 -45 8 -56 10 -12 2 -39 7 -60 11 -22 3 -50 8 -64
10 -76 13 -289 41 -375 49 -339 35 -667 45 -960 32 -193 -9 -263 -13 -335 -21
-30 -3 -77 -8 -105 -10 -67 -7 -145 -16 -175 -20 -104 -15 -190 -27 -215 -31
-54 -8 -329 -65 -385 -79 -30 -8 -66 -16 -80 -18 -39 -8 -181 -44 -246 -63
-32 -10 -62 -19 -66 -20 -5 -1 -10 -3 -13 -4 -3 -1 -8 -3 -12 -4 -29 -6 -161
-48 -173 -55 -8 -4 -49 -18 -90 -31 -41 -12 -79 -26 -85 -30 -5 -4 -44 -19
-85 -33 -78 -27 -255 -99 -350 -144 -72 -34 -311 -151 -330 -162 -8 -5 -71
-40 -140 -77 -69 -37 -139 -78 -157 -90 -17 -13 -34 -24 -37 -24 -11 0 -239
-147 -358 -230 -126 -89 -406 -304 -462 -356 -6 -5 -49 -43 -96 -84 -201 -176
-495 -469 -635 -635 -27 -32 -58 -67 -67 -77 -10 -10 -18 -22 -18 -27 0 -5 -3
-11 -7 -13 -7 -2 -83 -93 -126 -148 -7 -9 -28 -36 -47 -60 -129 -163 -406
-574 -498 -740 -14 -25 -28 -47 -31 -50 -3 -3 -13 -18 -21 -35 -8 -16 -45 -84
-82 -152 -92 -169 -184 -362 -259 -542 -22 -53 -45 -107 -50 -121 -6 -14 -11
-26 -10 -27 0 -2 -10 -26 -23 -55 -13 -29 -40 -102 -61 -163 -60 -178 -126
-369 -132 -385 -4 -8 -7 -17 -8 -20 -8 -30 -50 -164 -61 -193 -12 -31 -49
-165 -70 -249 -2 -10 -6 -26 -9 -35 -2 -10 -9 -36 -15 -58 -6 -22 -13 -47 -15
-55 -17 -61 -98 -468 -110 -558 -3 -20 -10 -68 -16 -107 -6 -38 -12 -81 -14
-95 -10 -61 -21 -179 -30 -295 -4 -49 -8 -101 -10 -115 -2 -14 -7 -92 -11
-175 -14 -299 -7 -663 20 -950 4 -38 8 -90 10 -115 7 -77 28 -248 41 -329 2
-13 7 -45 10 -70 6 -41 12 -77 30 -171 5 -28 25 -131 31 -170 3 -14 9 -41 14
-60 5 -19 11 -46 14 -60 15 -71 57 -248 65 -270 5 -14 19 -63 31 -110 12 -47
26 -96 30 -110 5 -14 27 -86 50 -160 23 -74 69 -209 102 -300 34 -91 67 -183
75 -205 36 -100 104 -282 113 -300 5 -11 21 -49 36 -85 14 -36 34 -83 44 -105
10 -22 29 -67 43 -100 14 -33 50 -112 80 -175 30 -63 56 -119 57 -125 1 -5 6
-15 11 -21 5 -6 27 -46 50 -90 34 -66 147 -272 184 -337 43 -76 151 -252 212
-344 40 -62 73 -117 73 -122 0 -5 4 -11 8 -13 5 -1 42 -52 82 -113 40 -60 76
-112 80 -115 3 -3 31 -41 63 -85 31 -44 60 -84 64 -90 5 -5 39 -50 77 -100 38
-49 73 -92 78 -93 4 -2 8 -8 8 -13 0 -5 8 -17 18 -27 9 -10 35 -40 57 -67 53
-63 98 -117 110 -131 6 -6 28 -33 50 -59 179 -216 569 -610 805 -815 41 -36
77 -67 80 -70 7 -7 131 -113 145 -123 5 -4 24 -19 40 -33 17 -14 43 -35 58
-47 16 -12 48 -37 70 -56 164 -135 653 -477 831 -582 32 -18 75 -44 95 -57 20
-12 43 -25 51 -29 8 -3 22 -11 30 -18 8 -7 53 -33 100 -58 47 -25 112 -60 145
-79 137 -77 577 -289 620 -298 6 -1 15 -5 20 -10 26 -21 434 -180 635 -247 58
-19 114 -39 125 -44 85 -37 666 -193 925 -248 103 -22 115 -24 235 -46 44 -8
91 -17 105 -20 33 -7 255 -43 303 -50 20 -3 52 -7 70 -9 108 -15 134 -18 156
-21 12 -2 60 -7 105 -10 44 -4 88 -8 96 -10 19 -5 149 -15 405 -32 158 -10
764 -10 935 0 252 15 389 27 505 42 17 2 57 7 90 10 33 3 71 8 85 10 14 3 48
7 75 10 28 4 102 15 165 25 63 11 131 22 150 25 19 3 112 21 205 40 94 20 184
38 200 41 17 3 102 24 190 46 554 140 978 288 1522 532 129 58 464 225 566
283 42 24 99 55 125 70 184 102 409 241 602 373 140 95 220 153 217 156 -2 2
-73 -18 -158 -45 -85 -27 -188 -59 -229 -71 -41 -12 -111 -32 -155 -45 -100
-29 -443 -116 -595 -150 -63 -15 -122 -28 -130 -30 -92 -21 -261 -55 -355 -71
-26 -4 -67 -11 -160 -29 -11 -2 -71 -11 -133 -20 -62 -9 -121 -18 -130 -19
-36 -7 -99 -16 -142 -21 -25 -3 -61 -7 -80 -10 -46 -6 -138 -17 -170 -20 -14
-2 -45 -5 -70 -9 -25 -3 -76 -8 -115 -11 -38 -4 -88 -8 -110 -10 -320 -32
-527 -40 -1040 -40 -431 1 -693 7 -775 20 -14 2 -63 7 -110 10 -47 3 -96 8
-110 10 -14 2 -58 7 -98 10 -41 4 -83 8 -95 11 -12 2 -42 6 -67 9 -25 3 -76 9
-115 15 -38 5 -90 12 -115 15 -25 3 -52 8 -60 10 -8 2 -35 7 -60 10 -25 2 -55
7 -66 9 -12 2 -39 7 -60 10 -22 4 -115 22 -209 41 -93 19 -181 36 -195 39 -53
10 -421 106 -539 140 -229 67 -558 179 -666 225 -11 5 -49 21 -85 35 -180 70
-285 117 -505 226 -224 112 -346 175 -405 211 -14 9 -77 46 -140 84 -263 156
-631 411 -764 530 -6 6 -45 37 -86 70 -111 88 -129 104 -305 264 -95 86 -312
306 -410 415 -44 49 -89 98 -100 110 -18 19 -159 187 -177 211 -4 6 -18 24
-31 40 -69 88 -218 286 -247 330 -18 28 -36 52 -39 55 -13 12 -51 70 -51 79 0
5 -4 11 -9 13 -4 1 -35 45 -67 96 -32 50 -71 111 -86 135 -15 23 -31 49 -35
57 -3 8 -19 34 -35 57 -15 23 -28 44 -28 48 0 3 -11 22 -23 43 -24 37 -37 61
-127 222 -45 81 -228 450 -265 535 -9 22 -25 58 -35 80 -43 95 -60 135 -60
141 0 3 -6 20 -14 37 -59 132 -160 459 -208 672 -11 50 -24 108 -29 130 -5 22
-11 49 -13 60 -7 29 -38 226 -41 255 -1 14 -5 43 -9 65 -3 22 -8 60 -11 85 -2
25 -7 74 -10 109 -13 121 -15 146 -22 276 -11 208 -5 614 11 780 2 17 7 62 11
102 9 93 18 166 30 253 2 14 7 45 10 70 3 25 11 72 16 104 6 33 13 76 15 95 4
30 54 268 68 321 2 8 16 62 30 120 53 209 154 511 212 637 8 18 21 50 29 70
44 123 208 432 313 593 105 159 294 376 411 470 60 48 67 49 44 4 -31 -59 -91
-209 -98 -243 -2 -9 -9 -29 -15 -46 -21 -54 -71 -227 -105 -365 -47 -191 -87
-422 -110 -640 -3 -30 -8 -73 -10 -95 -30 -278 -19 -886 20 -1115 2 -14 7 -45
10 -70 31 -241 138 -744 184 -863 6 -15 13 -38 15 -50 7 -38 110 -339 146
-427 10 -25 33 -81 50 -125 40 -100 53 -129 101 -233 22 -45 39 -85 39 -87 0
-12 198 -403 210 -415 3 -3 17 -27 31 -55 57 -108 64 -120 72 -123 4 -2 7 -10
7 -18 0 -8 5 -14 10 -14 6 0 10 -5 10 -11 0 -6 14 -30 30 -54 17 -24 30 -48
30 -53 0 -6 4 -12 8 -14 4 -1 52 -68 106 -147 53 -79 123 -178 154 -219 31
-40 62 -81 67 -90 6 -9 16 -22 22 -30 7 -7 46 -55 87 -105 162 -200 439 -492
627 -662 118 -107 136 -122 194 -170 33 -27 69 -58 80 -67 133 -114 589 -438
616 -438 5 0 9 -4 9 -10 0 -5 4 -10 9 -10 6 0 52 -26 104 -59 143 -89 393
-221 587 -310 232 -106 233 -107 370 -161 177 -71 515 -183 710 -235 57 -16
114 -29 250 -59 138 -31 202 -44 305 -61 17 -3 53 -10 80 -15 28 -5 70 -12 95
-15 25 -3 56 -8 70 -11 33 -6 82 -12 150 -19 30 -3 71 -8 90 -10 134 -15 160
-17 375 -31 203 -14 667 -7 777 11 13 2 59 6 103 10 44 3 96 8 115 9 19 2 71
7 115 11 44 4 87 8 95 10 8 1 47 6 85 9 119 12 185 19 265 31 14 2 72 11 130
20 58 8 119 18 135 21 125 22 271 50 385 76 74 16 142 31 150 33 119 25 641
181 745 224 11 4 92 36 180 71 226 88 420 176 640 289 240 124 259 134 263
144 2 4 8 7 14 7 37 0 694 432 818 538 14 12 52 43 86 69 33 27 78 62 99 78
21 17 43 35 49 41 6 5 56 48 111 95 167 141 499 464 635 618 36 41 79 88 95
106 48 52 76 85 150 175 38 47 72 87 75 90 6 5 111 133 180 220 19 24 50 62
68 84 51 63 51 63 145 188 48 65 87 122 87 127 0 5 4 11 9 13 18 7 318 475
409 638 14 25 34 57 44 72 11 16 16 28 12 28 -4 0 0 8 8 18 30 34 227 421 316
622 11 25 32 72 47 105 41 93 203 498 212 530 1 6 30 91 64 190 34 99 67 200
74 225 8 25 23 77 35 115 11 39 23 77 25 85 51 184 70 257 96 370 17 74 33
146 35 160 3 14 7 32 9 40 2 8 7 31 10 50 3 19 12 62 20 95 7 33 16 80 20 105
3 25 10 63 15 85 5 22 12 63 15 90 4 28 8 57 10 65 12 42 61 461 70 592 3 46
8 97 10 113 23 175 24 1067 1 1205 -3 14 -8 68 -12 120 -8 123 -10 143 -18
215 -8 74 -25 205 -30 231 -2 10 -7 42 -10 69 -9 68 -66 396 -72 417 -3 10 -7
30 -10 45 -30 175 -120 531 -212 833 -19 63 -36 124 -39 135 -3 11 -7 27 -10
35 -3 8 -7 20 -9 25 -4 15 -106 306 -152 430 -35 98 -98 256 -122 310 -5 11
-19 43 -31 70 -12 28 -31 70 -42 95 -11 25 -21 47 -22 50 -13 39 -199 418
-268 545 -111 206 -166 303 -209 368 -21 32 -38 61 -38 63 0 8 -162 261 -229
359 -94 138 -143 208 -153 219 -5 6 -31 43 -59 81 -27 39 -57 79 -66 89 -9 11
-31 40 -51 65 -60 80 -85 112 -146 185 -55 67 -139 166 -161 190 -5 6 -44 49
-85 96 -41 47 -97 110 -125 140 -62 69 -365 371 -466 465 -72 68 -102 94 -218
194 -30 25 -64 55 -75 66 -29 28 -235 191 -386 306 -151 116 -229 170 -425
300 -82 55 -154 103 -160 107 -21 15 -286 173 -415 247 -124 71 -491 257 -620
314 -30 14 -63 28 -72 33 -11 5 -18 5 -18 -1z"/>
</g>
</svg>
